<svg width="31" height="31" viewBox="0 0 31 31" fill="none" xmlns="http://www.w3.org/2000/svg">
<g id="Group 59">
<path id="Vector" d="M18.2329 15.5388C18.2329 17.0417 17.0242 18.2602 15.5334 18.2602C14.0427 18.2602 12.834 17.0417 12.834 15.5388C12.834 14.0359 14.0427 12.8174 15.5334 12.8174C17.0242 12.8174 18.2329 14.0359 18.2329 15.5388Z" fill="url(#paint0_linear_258_493)"/>
<path id="Vector_2" d="M20.0606 7.37451H11.0095C9.0393 7.37451 7.43665 8.99019 7.43665 10.9764V20.1011C7.43665 22.0873 9.0393 23.703 11.0095 23.703H20.0606C22.0308 23.703 23.6334 22.0873 23.6334 20.1011V10.9764C23.6334 8.99019 22.0308 7.37451 20.0606 7.37451ZM15.535 20.0411C13.0724 20.0411 11.069 18.0214 11.069 15.5387C11.069 13.0561 13.0724 11.0364 15.535 11.0364C17.9976 11.0364 20.0011 13.0561 20.0011 15.5387C20.0011 18.0214 17.9976 20.0411 15.535 20.0411ZM20.6561 11.2765C20.1627 11.2765 19.7629 10.8734 19.7629 10.3761C19.7629 9.8787 20.1627 9.4756 20.6561 9.4756C21.1494 9.4756 21.5493 9.8787 21.5493 10.3761C21.5493 10.8734 21.1494 11.2765 20.6561 11.2765Z" fill="url(#paint1_linear_258_493)"/>
<path id="Vector_3" d="M22.4045 0.571289H8.38963C4.07875 0.571289 0.571411 4.10714 0.571411 8.45307V22.5819C0.571411 26.9278 4.07875 30.4637 8.38963 30.4637H22.4045C26.7154 30.4637 30.2227 26.9278 30.2227 22.5819V8.45307C30.2227 4.10714 26.7154 0.571289 22.4045 0.571289ZM25.0106 19.9546C25.0106 22.8519 22.6724 25.2091 19.7984 25.2091H10.9957C8.12178 25.2091 5.78356 22.8519 5.78356 19.9546V11.0803C5.78356 8.18304 8.12178 5.82581 10.9957 5.82581H19.7984C22.6724 5.82581 25.0106 8.18304 25.0106 11.0803V19.9546Z" fill="url(#paint2_linear_258_493)"/>
</g>
<defs>
<linearGradient id="paint0_linear_258_493" x1="15.5334" y1="12.8174" x2="15.5334" y2="18.2602" gradientUnits="userSpaceOnUse">
<stop stop-color="white"/>
<stop offset="1" stop-color="#DAC8FF"/>
</linearGradient>
<linearGradient id="paint1_linear_258_493" x1="15.535" y1="7.37451" x2="15.535" y2="23.703" gradientUnits="userSpaceOnUse">
<stop stop-color="white"/>
<stop offset="1" stop-color="#DAC8FF"/>
</linearGradient>
<linearGradient id="paint2_linear_258_493" x1="15.3971" y1="0.571289" x2="15.3971" y2="30.4637" gradientUnits="userSpaceOnUse">
<stop stop-color="white"/>
<stop offset="1" stop-color="#DAC8FF"/>
</linearGradient>
</defs>
</svg>
