<svg width="31" height="31" viewBox="0 0 31 31" fill="none" xmlns="http://www.w3.org/2000/svg">
<path d="M30.058 2.323V27.8199C30.058 28.4028 29.8283 28.9619 29.4195 29.3741C29.0106 29.7863 28.456 30.0179 27.8778 30.0179H2.58653C2.00828 30.0179 1.45372 29.7863 1.04484 29.3741C0.635957 28.9619 0.40625 28.4028 0.40625 27.8199L0.40625 2.323C0.40625 1.74006 0.635957 1.18099 1.04484 0.768781C1.45372 0.356575 2.00828 0.125 2.58653 0.125L27.8778 0.125C28.456 0.125 29.0106 0.356575 29.4195 0.768781C29.8283 1.18099 30.058 1.74006 30.058 2.323ZM9.12736 11.5546H4.76681V25.6218H9.12736V11.5546ZM9.51981 6.71901C9.52211 6.38649 9.45942 6.05677 9.33531 5.74867C9.21121 5.44058 9.02812 5.16014 8.79651 4.92338C8.5649 4.68662 8.28929 4.49817 7.98544 4.36879C7.68158 4.2394 7.35542 4.17163 7.02558 4.16933H6.94709C6.27632 4.16933 5.63303 4.43795 5.15873 4.91611C4.68442 5.39427 4.41796 6.04279 4.41796 6.71901C4.41796 7.39523 4.68442 8.04375 5.15873 8.52191C5.63303 9.00007 6.27632 9.2687 6.94709 9.2687C7.27695 9.27688 7.60518 9.21945 7.91302 9.09971C8.22086 8.97996 8.50228 8.80024 8.7412 8.5708C8.98012 8.34137 9.17186 8.06673 9.30546 7.76257C9.43905 7.45841 9.51189 7.13069 9.51981 6.79814V6.71901ZM25.6975 17.076C25.6975 12.847 23.0288 11.2029 20.3776 11.2029C19.5095 11.1591 18.6452 11.3455 17.8709 11.7435C17.0966 12.1415 16.4394 12.7373 15.9647 13.4713H15.8426V11.5546H11.7437V25.6218H16.1043V18.1398C16.0412 17.3736 16.2807 16.6131 16.7705 16.0238C17.2604 15.4345 17.9612 15.0638 18.7206 14.9923H18.8863C20.2729 14.9923 21.302 15.8715 21.302 18.0871V25.6218H25.6626L25.6975 17.076Z" fill="url(#paint0_linear_401_3)"/>
<defs>
<linearGradient id="paint0_linear_401_3" x1="15.2321" y1="0.125" x2="15.2321" y2="30.0179" gradientUnits="userSpaceOnUse">
<stop stop-color="white"/>
<stop offset="1" stop-color="#DAC8FF"/>
</linearGradient>
</defs>
</svg>
